# xmcd
#
# Track frame offsets:
#	150
#	14840
#	29550
#	58279
#	70571
#	84727
#	96443
#	109296
#	124518
#	136833
#
# Disc length: 2010
#
# Revision: 2
# Processed by: cddbd v1.5.1PL0 Copyright (c) Steve Scherf et al.
# Submitted via: CDex 1.40Release
# Normalized: r1:DSETVAR1,TDELIM( - )
#
DISCID=8f07d80a
DTITLE=Various Artist - Lonesome Blues
DYEAR=2002
DGENRE=Blues
TTITLE0=Can't Make Another Day - Edith Johnson
TTITLE1=The Loveless Blues - Lonnie Johnson
TTITLE2=Empty Bed Blues - Bessie Smith
TTITLE3=When My Baby Left Me - Eddie Vinson and Cootie Williams
TTITLE4=Lonesome Bedroom Blues - Curtis Jones
TTITLE5=I Wonder Who's Boogiein' My Woogie Now - Oscar's Chicago Swingers
TTITLE6=Please Don't Go - Big Joe Williams
TTITLE7=Down Hearted Blues - Mildred Bailey
TTITLE8=No More Biscuits Rolling Here - Bumble Bee Slim
TTITLE9=Good Morning Blues - Jimmy Rushing and Count Basie
EXTD=YEAR: 2002 ID3G: 0
EXTT0=
EXTT1=
EXTT2=
EXTT3=
EXTT4=
EXTT5=
EXTT6=
EXTT7=
EXTT8=
EXTT9=
PLAYORDER=
